<?xml version="1.0" encoding="UTF-8"?>
<svg id="Layer_1" xmlns="http://www.w3.org/2000/svg" version="1.1" viewBox="0 0 800 400">
  <!-- Generator: Adobe Illustrator 29.0.0, SVG Export Plug-In . SVG Version: 2.1.0 Build 186)  -->
  <defs>
    <style>
      .st0 {
        fill: #fff;
        stroke: #231f20;
        stroke-miterlimit: 10;
        stroke-width: 2px;
      }
    </style>
  </defs>
  <path class="st0" d="M64,14c0,2.9-.9,5.5-2.3,7.7l210.4,347.5h487.7c2.3-4.7,7.1-8,12.7-8,7.8,0,14,6.3,14,14s-6.3,14-14,14c-5.6,0-10.4-3.3-12.7-8h-494.5S51.4,28,51.4,28c-.5,0-1,0-1.4,0-7.8,0-14-6.3-14-14,0-7.8,6.3-14,14-14s14,6.3,14,14Z"/>
</svg>